<?xml version="1.0" encoding="UTF-8"?>
<svg width="210" height="235" version="1.1" viewBox="0 0 55.563 62.177" xmlns="http://www.w3.org/2000/svg" xmlns:xlink="http://www.w3.org/1999/xlink">
 <defs>
  <linearGradient id="swatch2" gradientTransform="matrix(.1661 0 0 .21051 14.733 2.1634)">
   <stop stop-color="#7fd5ea" offset="0"/>
  </linearGradient>
  <linearGradient id="linearGradient1" x1="17.198" x2="67.469" y1="30.427" y2="30.427" gradientUnits="userSpaceOnUse" xlink:href="#swatch2"/>
  <linearGradient id="linearGradient2" x1="4.9863" x2="50.91" y1="17.551" y2="17.551" gradientUnits="userSpaceOnUse">
   <stop stop-color="#00add8" offset="0"/>
  </linearGradient>
 </defs>
 <g transform="translate(-14.552)" fill="none" stroke-width="5.2917">
  <path d="m67.469 2.6458-50.271 1e-7m10.583 27.781h37.042v22.49h-20.373l-1e-6 -5.2917-5.2917 5.2917 5.2917 5.2917v-5.2917" stroke="url(#linearGradient1)" stroke-linejoin="round" style="paint-order:normal"/>
  <path d="m17.198 52.917h15.875" stroke="url(#linearGradient1)"/>
  <path transform="translate(14.552)" d="m5.2917 27.781 1e-6 5.2917" stroke="url(#swatch2)"/>
 </g>
 <path d="m4.9863 17.253c0 2.1971 1.4224 3.6576 3.2131 3.6576 1.1049 0 1.905-0.5461 2.3241-1.1557v1.0922c0 1.3081-0.762 1.8669-1.7399 1.8669-0.889 0-1.5494-0.4191-1.7272-1.0541h-1.7653c0.1778 1.6129 1.5621 2.6035 3.5433 2.6035 2.3114 0 3.4798-1.5113 3.4798-3.4163v-7.0866h-1.7907v1.0033c-0.4191-0.6096-1.2192-1.1176-2.3241-1.1176-1.7907 0-3.2131 1.4097-3.2131 3.6068zm5.5372 0.0254c0 1.3335-0.889 2.0701-1.8669 2.0701-0.9525 0-1.8542-0.762-1.8542-2.0955s0.9017-2.0447 1.8542-2.0447c0.9779 0 1.8669 0.7366 1.8669 2.0701zm10.325 0c0-2.2225-1.5875-3.6322-3.6195-3.6322s-3.6195 1.4097-3.6195 3.6322c0 2.2098 1.5367 3.6322 3.5687 3.6322 2.0447 0 3.6703-1.4224 3.6703-3.6322zm-5.4356 0c0-1.4097 0.8509-2.0828 1.7907-2.0828s1.8161 0.6731 1.8161 2.0828c0 1.397-0.9017 2.0828-1.8415 2.0828-0.9525 0-1.7653-0.6858-1.7653-2.0828zm6.7437 3.5179h1.778v-9.398h-1.778zm3.5306 0h1.778v-7.0358h-1.778zm0.9017-7.874c0.6223 0 1.0922-0.4572 1.0922-1.0414s-0.4699-1.0414-1.0922-1.0414c-0.635 0-1.0922 0.4572-1.0922 1.0414s0.4572 1.0414 1.0922 1.0414zm7.5565 7.874h1.778v-4.1275c0-1.9431-1.1684-3.0099-2.8067-3.0099-0.9017 0-1.6637 0.381-2.1209 0.9779v-0.8763h-1.778v7.0358h1.778v-3.8862c0-1.1303 0.6223-1.7399 1.5875-1.7399 0.9398 0 1.5621 0.6096 1.5621 1.7399zm6.4897-5.6896c0.9144 0 1.651 0.5842 1.6764 1.5113h-3.3401c0.1397-0.9652 0.8128-1.5113 1.6637-1.5113zm3.3401 3.4798h-1.9177c-0.2286 0.4699-0.6477 0.8509-1.4097 0.8509-0.889 0-1.6002-0.5842-1.6891-1.6256h5.1435c0.0381-0.2286 0.0508-0.4572 0.0508-0.6858 0-2.0955-1.4351-3.4798-3.4671-3.4798-2.0828 0-3.5306 1.4097-3.5306 3.6322 0 2.2098 1.4859 3.6322 3.5306 3.6322 1.7399 0 2.9083-1.0287 3.2893-2.3241zm6.9342 0.2032c-0.0508-2.5781-3.9497-1.778-3.9497-3.0607 0-0.4064 0.3429-0.6731 1.0033-0.6731 0.6985 0 1.1303 0.3683 1.1811 0.9144h1.7018c-0.1016-1.397-1.1303-2.3241-2.8321-2.3241-1.7399 0-2.7813 0.9398-2.7813 2.1082 0 2.5781 3.9751 1.778 3.9751 3.0353 0 0.4064-0.381 0.7239-1.0795 0.7239-0.7112 0-1.2065-0.4064-1.27-0.9398h-1.7907c0.0762 1.3081 1.3081 2.3368 3.0734 2.3368 1.7145 0 2.7686-0.9144 2.7686-2.1209z" fill="url(#linearGradient2)" stroke-width=".26458" aria-label="golines"/>
 <text x="4.5672092" y="20.796249" display="none" fill="#000000" font-family="'Arial Rounded MT'" font-size="12.7px" stroke-width=".26458" style="line-height:1.25" xml:space="preserve"><tspan x="4.5672092" y="20.796249" fill="#000000" font-family="Poppins" font-size="12.7px" font-weight="600" stroke-width=".26458">golines</tspan></text>
</svg>
